<svg width="21" height="24" viewBox="0 0 21 24" fill="none" xmlns="http://www.w3.org/2000/svg">
<path d="M16.5874 1.22081C17.0395 1.67327 16.6603 2.67329 16.4261 3.2908C16.385 3.39923 16.3484 3.49588 16.3215 3.57568C15.5309 5.92251 14.8592 6.86294 14.9062 7.05939C14.9561 7.26815 15.8176 6.63665 18.2104 5.95994C18.2871 5.93824 18.3804 5.90762 18.485 5.87326C19.0808 5.67757 20.0457 5.36066 20.4281 5.88142C20.583 6.09238 20.673 6.24499 20.6467 6.55488C20.6032 7.06758 20.2738 7.49938 19.7868 7.7905C17.9829 8.86891 15.7563 9.01026 14.2139 8.44755C14.0052 8.7304 13.6527 9.05384 13.4302 9.33744C12.7909 10.152 12.1489 10.9673 11.5095 11.784C12.5556 11.582 13.5086 11.5514 14.5463 11.4813C15.7435 11.4004 16.9568 11.3478 17.943 11.5326C18.6141 11.6584 19.6123 11.8694 19.5954 12.3685C19.5793 12.8419 19.0042 13.435 18.0804 13.77C16.9378 14.1843 15.2686 14.3666 14.2323 14.3345C12.9178 14.2938 11.6489 13.6388 10.93 12.6764C10.5648 13.1285 9.67078 14 9.28785 14.4416C8.55793 15.2833 8.14419 15.8397 7.61685 16.541C8.28472 16.3765 10.1103 16.0294 11.5008 16.0574C11.5733 16.0589 11.6627 16.0562 11.7631 16.0531C12.3346 16.0359 13.26 16.008 13.4378 16.6766C13.5099 16.9474 13.543 17.1364 13.4297 17.4539C13.2423 17.9792 12.8318 18.3289 12.3264 18.4809C10.3151 19.0858 8.19884 18.3993 7.07768 17.1593C6.39478 18.156 5.7721 18.9622 4.3096 20.3199C5.12228 20.1474 5.97877 20.1937 6.7305 20.2214C7.04273 20.2328 7.35504 20.2443 7.67925 20.2386C9.03769 20.2144 10.4128 20.2242 11.5182 20.4975C12.2704 20.6834 13.388 20.9879 13.3419 21.5688C13.2981 22.1198 12.6156 22.7777 11.5526 23.1141C10.1722 23.5509 8.42834 23.6523 7.16962 23.5468C6.10968 23.4579 4.89992 22.9068 4.22453 22.2026C4.16849 22.1442 4.11131 22.0865 4.05423 22.0289C3.83756 21.8103 3.57911 21.5934 3.45526 21.2899C3.18562 21.594 1.42903 23.3653 1.12638 23.5178C0.968486 23.5974 0.842104 23.5781 0.720118 23.3785C0.654724 23.2715 0.68952 23.232 1.32127 22.4852C1.72717 22.0349 2.22612 21.4788 2.61685 21.0404C2.33205 20.9203 2.11374 20.6859 1.8947 20.483C1.83528 20.4279 1.77574 20.3727 1.71558 20.3188C0.976282 19.6558 0.387933 18.4871 0.238836 17.3868C0.148895 16.723 0.141083 15.9178 0.182382 15.1657C0.188331 15.0573 0.193714 14.947 0.199168 14.8351C0.23019 14.1991 0.263532 13.5154 0.416592 12.8874C0.685693 11.7833 1.28987 11.0497 1.82544 10.9742C2.38997 10.8946 2.74966 12.0188 2.97323 12.7764C3.30175 13.8898 3.38811 15.2933 3.44032 16.6817C3.45278 17.0131 3.48144 17.3313 3.51009 17.6495C3.56863 18.2996 3.5829 18.9588 3.58259 19.6293C3.58254 19.7482 3.57759 19.8595 3.56824 19.9632C5.52198 18.122 5.84212 17.7607 6.46029 16.8605C6.39992 16.8636 6.28481 16.7022 6.2245 16.6527C4.93511 15.5942 4.12252 13.4836 4.58356 11.3953C4.69928 10.8712 5.01478 10.4307 5.51661 10.2056C5.81994 10.0696 6.00703 10.091 6.27679 10.1466C6.94269 10.2838 6.9759 11.2272 6.9964 11.8097C7 11.912 7.00321 12.0032 7.00939 12.0769C7.14154 13.6549 6.85116 15.8158 6.75367 16.2507C6.74512 16.2889 6.66962 16.4369 6.72116 16.5643C6.8779 16.3863 7.39392 15.815 8.22018 14.8621C8.41279 14.64 9.93908 12.6898 9.89332 12.6537C8.94724 11.9076 8.31615 10.5777 8.26725 9.2379C8.22669 8.12661 8.38166 6.45492 8.78026 5.23946C9.09557 4.27799 9.6624 3.6764 10.1184 3.65593C10.5991 3.63435 10.8104 4.66868 10.9369 5.36419C11.1229 6.3862 11.082 7.6459 11.0136 8.88908C10.9973 9.18578 10.9957 9.4722 10.994 9.75855C10.9925 10.0266 10.9909 10.2946 10.9774 10.5709C10.9663 10.7964 10.9433 11.0312 10.9204 11.2648C10.9148 11.3221 10.9092 11.3795 10.9037 11.4366C11.2506 10.9958 11.5946 10.551 11.9414 10.1027C12.2635 9.68621 12.5879 9.26666 12.9193 8.84442C13.1585 8.53963 13.3831 8.23476 13.6164 7.91818C13.6449 7.87919 13.6737 7.84043 13.7024 7.80157C13.2424 6.10037 13.5475 3.63315 14.7526 1.73777C15.0662 1.24447 15.4972 0.931247 15.9788 0.929443C16.2699 0.928352 16.4043 1.03752 16.5874 1.22081Z" fill="#3D5138"/>
</svg>
