<svg width="461" height="366" viewBox="0 0 461 366" fill="none" xmlns="http://www.w3.org/2000/svg">
<path fill-rule="evenodd" clip-rule="evenodd" d="M8.27004 365.401L0.201748 353.276C5.6603 346.152 12.6154 341.098 19.2811 336.8C21.4643 335.393 23.5754 334.087 25.6194 332.823C30.7679 329.638 35.4901 326.718 39.8638 323.097C42.2201 321.147 44.0049 318.09 45.5942 313.81C47.9147 307.562 49.4753 301.048 51.7428 294.773C40.02 288.492 21.162 269.579 18.1473 254.174C16.6555 246.551 16.9364 238.652 17.2853 231.874C18.0286 217.433 27.2717 204.387 43.1243 202.047C50.0026 201.032 55.6228 202.43 59.9021 206.798C63.1087 210.07 65.1044 214.739 66.725 218.531C66.8675 218.864 67.0072 219.191 67.1444 219.509C74.675 236.97 75.1043 256.138 72.23 273.825C71.5322 278.119 70.3599 282.439 69.0138 286.64C74.5861 287.564 81.7062 286.833 89.4028 285.028C97.3414 283.166 105.24 280.323 111.565 277.778C118.932 274.813 126.307 271.115 130.78 266.325C132.907 264.048 134.351 260.73 135.563 256.211C136.125 254.112 136.591 251.95 137.09 249.633L137.183 249.2C137.448 247.97 137.726 246.689 138.03 245.4C137.075 245.238 136.125 245.058 135.183 244.861C126.099 242.959 116.658 239.239 110.225 233.28C104.217 227.716 99.2552 219.617 96.1398 211.207C93.0389 202.836 91.4592 193.318 93.1609 184.859C96.5426 168.048 112.951 161.211 125.569 159.978C134.823 159.074 142.067 162.839 147.278 168.339C152.295 173.633 155.514 180.567 157.558 186.794C161.476 198.732 158.268 215.567 155.739 228.837C155.487 230.157 155.242 231.443 155.012 232.684C156.458 232.54 157.812 232.325 159.046 232.042C166.5 230.332 175.002 227.823 182.798 224.325C190.672 220.793 197.333 216.467 201.613 211.373C205.684 206.527 209.489 201.47 212.421 196.261C204.366 191.215 197.047 184.095 191.389 176.264C181.745 162.915 175.487 145.45 180.342 129.767C182.237 123.646 186.379 118.101 191.898 114.764C197.579 111.33 204.825 110.227 212.008 113.536C219.827 117.139 224.386 124.577 227.05 131.439C229.775 138.456 230.998 146.079 231.405 151.896C231.477 152.917 231.553 153.952 231.631 154.999C232.419 165.664 233.302 177.621 229.978 189.434C230.849 189.667 231.71 189.855 232.559 189.994C248.164 192.55 264.803 186.532 278.386 176.803C288.931 169.249 296.16 159.038 301.206 147.281C276.734 135.874 254.73 89.8869 278.326 65.0814C283.273 59.8799 290.113 57.5316 298.384 57.9229C306.588 58.3111 312.913 61.6747 317.298 67.1023C321.477 72.2735 323.505 78.8259 324.454 85.1611C326.343 97.7856 324.301 112.2 322.733 120.975C321.683 126.855 320.363 132.789 318.656 138.638C328.883 140.429 340.189 139.062 351.059 134.052C363.503 128.315 371.797 117.251 377.518 103.475C378.248 101.717 378.931 99.927 379.571 98.1115C378.016 97.4089 376.462 96.596 374.91 95.6632C363.362 88.7238 352.725 71.6639 346.188 59.1824C343.696 54.4247 341.635 48.8143 341.725 42.4398C341.878 31.6357 347.404 22.4339 354.399 15.5804C361.403 8.71789 370.396 3.6648 378.877 1.08036C382.728 -0.0932422 386.649 -0.131049 390.277 1.44273C393.823 2.98116 396.279 5.70908 397.958 8.55644C401.174 14.0093 402.429 21.4104 402.93 28.1462C403.956 41.96 402.053 57.4274 401.489 61.5324C400.355 69.7903 398.874 79.0047 396.597 88.2913C404.52 88.4797 413.124 85.8717 423.137 81.9434C428.413 79.8738 433.553 75.6695 438.627 70.0612C443.55 64.6211 447.982 58.3566 452.202 52.3693L460.256 64.4736C456.814 69.2854 452.946 74.4604 448.691 79.1626C443.015 85.4357 436.193 91.3967 428.09 94.5756C416.949 98.9467 404.93 102.882 392.712 101.641C391.896 104.014 391.012 106.363 390.053 108.674C383.601 124.211 373.421 138.684 356.737 146.375C342.738 152.828 327.776 154.482 314.119 151.583C308.318 165.502 299.629 178.277 286.288 187.833C270.972 198.804 250.732 206.722 230.359 203.386C228.476 203.077 226.597 202.624 224.73 202.04C221.06 208.769 216.416 214.847 212.005 220.097C205.867 227.404 197.133 232.765 188.35 236.706C179.49 240.681 170.077 243.433 162.076 245.269C158.902 245.997 155.402 246.383 151.754 246.459C151.301 248.149 150.895 249.993 150.451 252.052L150.343 252.556L150.342 252.557C149.859 254.803 149.327 257.278 148.673 259.718C147.283 264.905 145.128 270.84 140.699 275.584C134.02 282.735 124.154 287.338 116.628 290.366C109.991 293.037 101.379 296.156 92.4968 298.239C83.7483 300.291 74.0545 301.508 65.5312 299.797C65.1701 299.725 64.8104 299.648 64.4521 299.568C60.2484 311.129 58.4241 325.347 48.5169 333.548C43.3656 337.812 37.443 341.475 32.0273 344.824C30.1508 345.984 28.3349 347.107 26.6333 348.204C19.6741 352.691 13.8949 357.135 9.82323 363.119L8.27004 365.401ZM58.8328 271.655C58.2769 275.075 57.3982 278.407 56.334 281.771C48.785 277.242 33.5931 262.423 31.4677 251.562C30.3321 245.759 30.4893 239.383 30.8403 232.565C31.3128 223.385 36.7664 216.702 45.101 215.472C48.8433 214.919 49.6999 215.782 50.2039 216.296C51.4984 217.617 52.5326 219.908 54.6805 224.887C60.8576 239.21 61.4492 255.555 58.8328 271.655ZM388.043 59.6919C386.931 67.7813 385.526 76.4144 383.455 84.9052C382.937 84.632 382.421 84.3408 381.906 84.0312C372.631 78.4576 363.497 62.9726 358.213 52.8831C356.295 49.2202 355.25 45.9053 355.297 42.6259C355.383 36.5226 358.53 30.5286 363.896 25.2705C369.254 20.0214 376.312 16.0471 382.829 14.0609C384.257 13.6257 384.777 13.8521 384.867 13.8911L384.87 13.8921C385.034 13.9635 385.562 14.2588 386.266 15.4525C387.816 18.0818 388.924 22.834 389.394 29.1581C390.309 41.4641 388.585 55.7427 388.043 59.6919ZM309.372 118.595C308.406 124.003 307.225 129.297 305.755 134.404C298.282 130.647 262.125 69.793 297.736 71.4781C302.226 71.6905 304.884 73.3379 306.738 75.6326C308.8 78.1837 310.265 82.0649 311.03 87.1757C312.567 97.4433 310.913 109.97 309.372 118.595ZM218.067 155.676C218.799 165.829 219.44 174.722 217.517 183.361C212.054 179.559 206.777 174.383 202.394 168.315C193.934 156.604 190.255 143.636 193.308 133.773C194.284 130.622 196.427 127.881 198.918 126.375C201.248 124.967 203.737 124.67 206.322 125.861C209.452 127.303 212.251 130.828 214.397 136.355C216.482 141.726 217.52 147.917 217.865 152.849C217.932 153.803 218 154.745 218.067 155.676ZM142.021 228.59C141.759 229.865 141.512 231.068 141.29 232.181C140.188 232.011 139.079 231.81 137.971 231.578C130.114 229.933 123.363 226.946 119.451 223.323C115.343 219.518 111.421 213.381 108.868 206.489C106.3 199.557 105.426 192.706 106.467 187.529C108.059 179.616 116.402 174.508 126.883 173.484C131.229 173.06 134.538 174.63 137.423 177.674C140.504 180.925 142.926 185.745 144.661 191.031C147.787 200.554 144.332 217.355 142.021 228.59Z" fill="#C9907C"/>
</svg>
